<svg xmlns="http://www.w3.org/2000/svg" width="283.5" height="161.932" viewBox="0 0 283.5 161.932"><defs><style>.a,.b{fill:#f5f4f1;}.a{font-size:79px;font-family:ComicSansMS, Comic Sans MS;letter-spacing:0.152em;}.c{fill:#f25c05;}</style></defs><g transform="translate(7738.25 -1475)"><text class="a" transform="translate(-7681 1562)"><tspan x="0" y="0">404</tspan></text><path class="b" d="M33.343,599.2H292.856a9.639,9.639,0,0,0,9.639-9.639v-20.4a8.215,8.215,0,0,0-8.215-8.215H31.919a8.215,8.215,0,0,0-8.215,8.215v20.4A9.639,9.639,0,0,0,33.343,599.2Z" transform="translate(-7759.25 1014.553)"/><path class="b" d="M275.379,687.813h39.656A10.513,10.513,0,0,0,325.549,677.3V666.984H264.864V677.3A10.513,10.513,0,0,0,275.379,687.813Zm-186.864,0H128.17A10.513,10.513,0,0,0,138.685,677.3V666.984H78V677.3A10.515,10.515,0,0,0,88.515,687.813Z" transform="translate(-7797.925 946.766)"/><path class="c" d="M44.93,528.944H26.273A10.58,10.58,0,0,0,15.7,539.513v20.4A12.006,12.006,0,0,0,27.7,571.9h3.979v7.961a12.882,12.882,0,0,0,12.868,12.868H84.2a12.882,12.882,0,0,0,12.868-12.868V571.9h121.47v7.961a12.882,12.882,0,0,0,12.87,12.868h39.655a12.882,12.882,0,0,0,12.868-12.868V571.9h3.28A12.006,12.006,0,0,0,299.2,559.911v-20.4c-.65-8.827-10.569-10.569-10.569-10.569Zm47.433,50.921a8.171,8.171,0,0,1-8.161,8.161H44.544a8.171,8.171,0,0,1-8.161-8.161V571.9h55.98Zm186.859,0a8.171,8.171,0,0,1-8.161,8.161H231.408a8.171,8.171,0,0,1-8.164-8.161V571.9h55.978ZM294.5,539.513v1.5H111.008a2.353,2.353,0,1,0,0,4.707H294.493v14.2a7.3,7.3,0,0,1-7.286,7.286H27.7a7.3,7.3,0,0,1-7.286-7.286v-14.2H57.3a2.353,2.353,0,1,0,0-4.707H20.411v-1.5a5.869,5.869,0,0,1,5.862-5.862h262.36A5.867,5.867,0,0,1,294.5,539.513Z" transform="translate(-7753.954 1044.2)"/><path class="c" d="M198.385,574.675h23.862a2.353,2.353,0,0,0,0-4.707H198.385a2.353,2.353,0,1,0,0,4.707Z" transform="translate(-7881.236 1015.244)"/></g></svg>