<svg xmlns="http://www.w3.org/2000/svg" xmlns:xlink="http://www.w3.org/1999/xlink" width="224.864" height="225.363" viewBox="0 0 224.864 225.363"><defs><style>.a{fill:url(#a);}.b{fill:#f25c05;font-size:79px;font-family:ArialRoundedMTBold, Arial Rounded MT;letter-spacing:0.152em;}</style><linearGradient id="a" x1="0.44" y1="-0.114" x2="0.194" y2="0.743" gradientUnits="objectBoundingBox"><stop offset="0" stop-color="#f25c05"/><stop offset="0.68" stop-color="#f25c05"/><stop offset="0.681" stop-color="#f9b187"/><stop offset="0.692" stop-color="#fff"/><stop offset="1" stop-color="#fff"/></linearGradient></defs><g transform="translate(7097 -981.637)"><path class="a" d="M71.733,2.5c-6.149,0-10.248,2.052-10.248,8.207H43.04C20.5,10.707,2.05,27.121,2.05,49.69,2.05,59.949,8.2,70.208,16.4,78.415,6.149,84.57,0,92.777,0,105.087c0,16.414,14.347,30.776,32.792,30.776H151.664c18.446,0,32.792-14.362,32.792-30.776,0-4.1,0-8.207-2.05-12.31l20.5,10.259c8.2,4.1,16.4,0,20.5-6.155,4.1-8.207-1.086-16.293-7.024-19.373l-15.521-7.3L211.1,68.156c8.2-2.052,14.347-8.207,12.3-16.414s-8.2-12.31-16.4-12.31h-2.05l-32.792,6.155c-8.2-14.362-22.545-30.776-49.188-32.828,0,0,0-10.259-10.248-10.259ZM81.981,23.017h20.5v90.277h-20.5Zm61.485,49.242c4.1,0,6.149,2.052,8.2,6.155l2.049-2.052c2.05-4.1,6.149-4.1,10.248-2.052s4.1,6.155,2.05,10.259l-6.149,10.259c2.05,2.052,4.1,4.1,4.1,8.207,0,6.155-4.1,10.259-12.3,10.259H122.971V92.777h14.347V80.466c0-4.1,2.05-8.207,6.149-8.207ZM38.941,74.311c2.05,0,6.149,0,8.2,4.1l2.05,4.1c2.05-2.052,4.1-2.052,6.149-2.052,4.1,0,6.149,4.1,6.149,6.155v26.673H32.792c-8.2,0-12.3-4.1-12.3-10.259s4.1-10.259,12.3-10.259h6.149l-4.1-8.207c-2.05-4.1,0-8.207,2.05-10.259Z" transform="translate(-7097 979.137)"/><text class="b" transform="translate(-7087 1190)"><tspan x="0" y="0">404</tspan></text></g></svg>