<svg xmlns="http://www.w3.org/2000/svg" width="27" height="36" viewBox="0 0 27 36">
  <defs>
    <style>
      .cls-1 {
        fill: #fff;
      }
    </style>
  </defs>
  <g id="click" transform="translate(-106.312)">
    <path id="路径_91" data-name="路径 91" class="cls-1" d="M130.123,164.1h-.068a2.851,2.851,0,0,0-1.415.362,3.194,3.194,0,0,0-2.933-2.061,3.278,3.278,0,0,0-1.484.362,3.194,3.194,0,0,0-2.933-2.061,3.243,3.243,0,0,0-1.177.217v-2.784a3.335,3.335,0,0,0-3.223-3.507,3.418,3.418,0,0,0-3.325,3.507v11.785l-1.4-1.464a3.372,3.372,0,0,0-4.706,0c-1.057,1.121-1.842,3.489-.222,5.188l8.526,8.984a2.972,2.972,0,0,0,.614.506c1.535,1.32,3.359,2.187,7.264,2.187,8.935,0,9.669-5.332,9.669-11.279V167.6A3.32,3.32,0,0,0,130.123,164.1Zm-19.235,6.2,3.052,3.218a1.043,1.043,0,0,0,1.79-.8V158.474a1.2,1.2,0,0,1,1.177-1.229,1.131,1.131,0,0,1,1.074,1.229v10.484a1.076,1.076,0,0,0,2.149.127v-4.519a1.146,1.146,0,0,1,1.108-1.229,1.241,1.241,0,0,1,.836.343,1.194,1.194,0,0,1,.29.886v5.748a1.076,1.076,0,0,0,2.149.127v-4.176a1.141,1.141,0,0,1,1.074-1.229,1.214,1.214,0,0,1,1.194,1.229v5.061a1.1,1.1,0,0,0,1.074,1.139,1.082,1.082,0,0,0,1.057-1.012v-3.633a1.147,1.147,0,0,1,1.944-.9,1.234,1.234,0,0,1,.307.922v6.218c0,5.043,0,9.02-7.52,9.02-3.1,0-5.065-.687-6.582-2.278l-8.066-8.5a1.261,1.261,0,0,1-.375-.994,1.524,1.524,0,0,1,.426-.94,1.313,1.313,0,0,1,.955-.4A1.061,1.061,0,0,1,110.888,170.3Z" transform="translate(0 -149.317)"/>
    <path id="路径_92" data-name="路径 92" class="cls-1" d="M180.588,9.437a1.232,1.232,0,0,0,1.037-1.23,5.8,5.8,0,0,1,11.6,0,1.246,1.246,0,0,0,1.037,1.23,1.209,1.209,0,0,0,1.388-1.2A8.225,8.225,0,1,0,179.2,8.225,1.212,1.212,0,0,0,180.588,9.437Z" transform="translate(-70.387)"/>
  </g>
</svg>
