<svg xmlns="http://www.w3.org/2000/svg" width="259" height="235.522" viewBox="0 0 259 235.522">
  <defs>
    <style>
      .cls-1 {
        fill: #f5f4f1;
      }

      .cls-2 {
        fill: #f25c05;
      }

      .cls-3 {
        fill: none;
      }

      .cls-4, .cls-5 {
        stroke: none;
      }

      .cls-5 {
        fill: #f25c05;
      }
    </style>
  </defs>
  <g id="gift" transform="translate(7080 -1039.491)">
    <path id="路径_69" data-name="路径 69" class="cls-1" d="M100.887,99.419,66.828,149.532l5.742,67.84h49.444V95.016H103.841Z" transform="translate(-7059.945 1056.191)"/>
    <path id="路径_70" data-name="路径 70" class="cls-1" d="M141.131,95.016V217.372h49.388L200.832,95.016Z" transform="translate(-7021.925 1056.191)"/>
    <path id="路径_71" data-name="路径 71" class="cls-2" d="M126.783,98.1,100.807,80.487,71.653,123.41a37.405,37.405,0,0,0-9.309-16.055c-5.63-5.686-12.431-8.194-19.12-7.191a15.135,15.135,0,0,0-11.037,7.581c-4.515,8.473,1.449,16.89,3.735,20.068a86.181,86.181,0,0,0,5.909,7.413c-2.954-1-5.964-1.95-9.086-2.732-3.791-.948-13.769-3.4-20.012,3.958A14.9,14.9,0,0,0,9.778,149.5c1.505,6.577,6.41,11.929,13.769,15.106A37.642,37.642,0,0,0,38.1,167.5a28.176,28.176,0,0,0,3.791-.224L13.847,208.642l25.976,17.614,55.353-81.608,28.6-42.142ZM39.1,111.369a7.117,7.117,0,0,1,5.3-3.512,9.009,9.009,0,0,1,1.728-.111c8.975,0,16.388,10.591,18.228,18.562a29.258,29.258,0,0,1,.669,6.967l-.056.112-5.686,8.363a119.481,119.481,0,0,1-16.946-18.508c-3.846-5.351-4.794-8.919-3.233-11.873Zm2.787,47.994c-8.585,1.282-22.242-2.118-24.471-11.706a7.015,7.015,0,0,1,1.338-6.243c1.338-1.56,3.177-2.34,5.909-2.34a27.438,27.438,0,0,1,6.3.946,118.033,118.033,0,0,1,23.412,8.919l-4.627,6.745-1.171,1.673A24.314,24.314,0,0,1,41.886,159.364Z" transform="translate(-7089.354 1048.757)"/>
    <path id="路径_81" data-name="路径 81" class="cls-2" d="M150.025,95.016H108.5v122.3h41.529Z" transform="translate(-7038.624 1056.191)"/>
    <g id="多边形_2" data-name="多边形 2" class="cls-3" transform="translate(-7004.094 1054.156)">
      <path class="cls-4" d="M25.962,9.637a3,3,0,0,1,5.75,0l2.811,9.424A3,3,0,0,0,37.482,21.2l9.862-.275a3,3,0,0,1,1.76,5.487l-8.061,5.432A3,3,0,0,0,39.9,35.354l3.3,9.121a3,3,0,0,1-4.635,3.41l-7.914-6.009a3,3,0,0,0-3.628,0l-7.914,6.009a3,3,0,0,1-4.635-3.41l3.3-9.121a3,3,0,0,0-1.144-3.509L8.57,26.413a3,3,0,0,1,1.76-5.487l9.862.275a3,3,0,0,0,2.959-2.141Z"/>
      <path class="cls-5" d="M 28.8369083404541 10.49432373046875 L 28.83691787719727 10.49432373046875 L 26.02552795410156 19.91846466064453 C 25.27290725708008 22.4412727355957 22.90888977050781 24.2032356262207 20.27665710449219 24.2032356262207 C 20.22071838378906 24.2032356262207 20.16422653198242 24.20245361328125 20.1083984375 24.20088195800781 L 10.24684143066406 23.92544937133789 C 10.24682998657227 23.92547988891602 10.24682235717773 23.92550659179688 10.24667739868164 23.92544555664062 L 18.30732727050781 29.3572940826416 C 20.59306716918945 30.89757347106934 21.53425598144531 33.78341293334961 20.59613800048828 36.3751335144043 L 17.29447937011719 45.49655151367188 L 25.20864868164062 39.48769378662109 C 26.24594879150391 38.70010375976562 27.53448867797852 38.26636505126953 28.8369083404541 38.26636505126953 C 30.13932800292969 38.26636505126953 31.42787742614746 38.70010375976562 32.46515655517578 39.48767471313477 L 40.37933731079102 45.49655151367188 L 37.07769012451172 36.3751335144043 C 36.13956832885742 33.78341293334961 37.08075714111328 30.89757347106934 39.36648559570312 29.3572940826416 L 47.42716979980469 23.92543411254883 C 47.42716979980469 23.92543411254883 47.42716979980469 23.92543411254883 47.42716979980469 23.92543411254883 L 47.42715835571289 23.92543411254883 L 37.56554794311523 24.20086288452148 C 34.86476135253906 24.27634048461914 32.41691207885742 22.49492263793945 31.64828872680664 19.91842269897461 L 28.8369083404541 10.49432373046875 M 28.83691215515137 7.494316101074219 C 30.06127738952637 7.494316101074219 31.28564262390137 8.208450317382812 31.71171760559082 9.636714935302734 L 34.52309799194336 19.06081390380859 C 34.91119766235352 20.36176300048828 36.12454223632812 21.23994445800781 37.48165893554688 21.20203399658203 L 47.34340667724609 20.92660522460938 C 50.34614562988281 20.84262084960938 51.59478759765625 24.73458290100098 49.1036491394043 26.41328430175781 L 41.04297637939453 31.84514427185059 C 39.90202713012695 32.61399459838867 39.43030548095703 34.06038665771484 39.89857864379883 35.35406494140625 L 43.20022583007812 44.47548294067383 C 44.21784973144531 47.28681182861328 40.94647216796875 49.69387435913086 38.56522750854492 47.88590240478516 L 30.65103721618652 41.87702178955078 C 29.57865715026855 41.06281280517578 28.09516716003418 41.06281280517578 27.02278709411621 41.87702178955078 L 19.10859680175781 47.88590240478516 C 16.72734832763672 49.69387435913086 13.45597839355469 47.28681182861328 14.47358703613281 44.47548294067383 L 17.77524948120117 35.35406494140625 C 18.2435188293457 34.06038665771484 17.77179718017578 32.61399459838867 16.6308479309082 31.84514427185059 L 8.570186614990234 26.41329383850098 C 6.079048156738281 24.73458480834961 7.327426910400391 20.84271240234375 10.33042907714844 20.92661285400391 L 20.19215774536133 21.20205307006836 C 21.54944610595703 21.23980712890625 22.76263046264648 20.36177444458008 23.15072631835938 19.06083297729492 L 25.96210861206055 9.636714935302734 C 26.38818359375 8.208450317382812 27.612548828125 7.494316101074219 28.83691215515137 7.494316101074219 Z"/>
    </g>
    <g id="减去_2" data-name="减去 2" class="cls-3" transform="translate(-6977.742 1109.619)">
      <path class="cls-4" d="M86.461,44.588H50.3A4.016,4.016,0,0,0,48.808,42.4L34.99,32.174A3.952,3.952,0,0,1,33.52,30.1a4.1,4.1,0,0,1,1.358-4.3,3.953,3.953,0,0,1,2.393-.848l17.7-.437A3.979,3.979,0,0,0,58.627,21.9l6-16.376a4,4,0,0,1,7.512,0l6,16.376a3.977,3.977,0,0,0,3.658,2.624l17.7.437a3.951,3.951,0,0,1,2.392.848,4.1,4.1,0,0,1,1.358,4.3,3.953,3.953,0,0,1-1.47,2.07L87.949,42.4a4.017,4.017,0,0,0-1.488,2.192Z"/>
      <path class="cls-5" d="M 84.60169219970703 41.58780670166016 C 85.03142547607422 40.97600173950195 85.55856323242188 40.43224716186523 86.16481018066406 39.98355102539062 L 99.98240661621094 29.76233673095703 C 100.1762237548828 29.61896133422852 100.3025741577148 29.45033836364746 100.3579864501953 29.26117324829102 C 100.4136352539062 29.07119560241699 100.4080123901367 28.86780738830566 100.3412551879883 28.65664291381836 C 100.2745361328125 28.44559669494629 100.162353515625 28.27605438232422 100.0077896118164 28.15271377563477 C 99.85397338867188 28.02996063232422 99.65390014648438 27.96471405029297 99.41278839111328 27.95878410339355 L 81.71444702148438 27.52138519287109 C 78.82028198242188 27.45000839233398 76.30771636962891 25.64756011962891 75.31368255615234 22.93020820617676 L 69.31790161132812 6.553890228271484 C 69.15838623046875 6.118231773376465 68.84233093261719 5.897337436676025 68.37850189208984 5.897337436676025 C 67.91503143310547 5.897337436676025 67.59928131103516 6.118020057678223 67.4398193359375 6.553808212280273 L 61.44378662109375 22.93086624145508 C 60.44820785522461 25.64812660217285 57.93587875366211 27.45000839233398 55.04342269897461 27.52138519287109 L 37.34455108642578 27.95879554748535 C 37.10346984863281 27.96472549438477 36.90313720703125 28.03004264831543 36.74913787841797 28.15291404724121 C 36.59452819824219 28.27629089355469 36.48230361938477 28.44584274291992 36.41557312011719 28.65693664550781 C 36.34884643554688 28.86800765991211 36.34321975708008 29.07132530212402 36.39886856079102 29.26128959655762 C 36.45426940917969 29.45038414001465 36.58060836791992 29.61896133422852 36.77431488037109 29.76225471496582 L 50.59259796142578 39.9839973449707 C 51.19851684570312 40.43244552612305 51.72554397583008 40.97613525390625 52.15517425537109 41.58780670166016 L 84.60169219970703 41.58780670166016 M 86.4610595703125 44.58780670166016 L 50.29574966430664 44.58780670166016 C 50.06390380859375 43.71250152587891 49.53585815429688 42.93416213989258 48.80790328979492 42.3953971862793 L 34.99021148681641 32.17410278320312 C 34.26846694946289 31.64017295837402 33.7600212097168 30.9245491027832 33.51984405517578 30.1046199798584 C 33.2969970703125 29.3438777923584 33.30918502807617 28.53057289123535 33.55510330200195 27.75266647338867 C 33.80099868774414 26.97478485107422 34.25845718383789 26.30230140686035 34.87802124023438 25.80793762207031 C 35.54583358764648 25.27507781982422 36.37324523925781 24.98177337646484 37.27080917358398 24.95970153808594 L 54.96930313110352 24.52230262756348 C 56.62222290039062 24.48151397705078 58.05792617797852 23.45172500610352 58.62690353393555 21.89879608154297 L 64.62270355224609 5.522396087646484 C 65.21517181396484 3.903196334838867 66.65431213378906 2.897337436676025 68.37850189208984 2.897337436676025 C 70.10271453857422 2.897337436676025 71.5421142578125 3.903196334838867 72.13499450683594 5.522396087646484 L 78.13079833984375 21.89879608154297 C 78.69888305664062 23.45172500610352 80.13457489013672 24.48151397705078 81.78840637207031 24.52230262756348 L 99.48690032958984 24.95970153808594 C 100.3842086791992 24.98177337646484 101.2113952636719 25.27504348754883 101.8790588378906 25.8078556060791 C 102.4984817504883 26.30217361450195 102.9558563232422 26.97457313537598 103.2017364501953 27.75240898132324 C 103.4476699829102 28.53037261962891 103.4598693847656 29.34370231628418 103.2370223999023 30.10449028015137 C 102.9968338012695 30.92447853088379 102.4883728027344 31.64015007019043 101.7666091918945 32.17410278320312 L 87.94890594482422 42.3953971862793 C 87.22154235839844 42.93373870849609 86.69320678710938 43.71208953857422 86.46125793457031 44.58706665039062 L 86.4610595703125 44.58780670166016 Z"/>
    </g>
    <path id="多边形_4" data-name="多边形 4" class="cls-2" d="M13.207,3.228a1,1,0,0,1,1.917,0l1.939,6.531a1,1,0,0,0,.987.715l6.851-.192a1,1,0,0,1,.589,1.828l-5.638,3.817a1,1,0,0,0-.38,1.167l2.3,6.381a1,1,0,0,1-1.547,1.134L14.772,20.45a1,1,0,0,0-1.213,0L8.108,24.608a1,1,0,0,1-1.547-1.134l2.3-6.381a1,1,0,0,0-.38-1.167L2.842,12.109a1,1,0,0,1,.589-1.828l6.851.192a1,1,0,0,0,.987-.715Z" transform="translate(-6904.931 1039.491)"/>
    <path id="多边形_5" data-name="多边形 5" class="cls-2" d="M9.705,3.33a1,1,0,0,1,1.922,0L12.8,7.389a1,1,0,0,0,.99.722l4.193-.121a1,1,0,0,1,.6,1.82l-3.5,2.436a1,1,0,0,0-.372,1.151l1.413,4.038a1,1,0,0,1-1.561,1.117l-3.282-2.577a1,1,0,0,0-1.235,0L6.766,18.552A1,1,0,0,1,5.2,17.435L6.618,13.4a1,1,0,0,0-.372-1.151L2.751,9.81a1,1,0,0,1,.6-1.82l4.193.121a1,1,0,0,0,.99-.722Z" transform="translate(-6862.832 1087.522)"/>
    <circle id="椭圆_26" data-name="椭圆 26" class="cls-1" cx="7.5" cy="7.5" r="7.5" transform="translate(-6924 1077)"/>
    <circle id="椭圆_27" data-name="椭圆 27" class="cls-1" cx="5.5" cy="5.5" r="5.5" transform="translate(-6832 1117)"/>
    <circle id="椭圆_28" data-name="椭圆 28" class="cls-1" cx="4" cy="4" r="4" transform="translate(-6845 1059)"/>
  </g>
</svg>
