<svg xmlns="http://www.w3.org/2000/svg" width="897.901" height="1024" viewBox="0 0 897.901 1024">
  <defs>
    <style>
      .cls-1 {
        fill: #222;
      }
    </style>
  </defs>
  <g id="ylab-list2" transform="translate(-62.999)">
    <path id="路径_67" data-name="路径 67" class="cls-1" d="M914.2,46.8A158.471,158.471,0,0,0,801.4,0h-579A159.786,159.786,0,0,0,63,159.7V895a156.676,156.676,0,0,0,29.7,92.5,90,90,0,0,0,29.2,26A85.742,85.742,0,0,0,163,1024h.4a87.231,87.231,0,0,0,76.7-45.5l39.2-71.6,41.5,72.4a85.385,85.385,0,0,0,70.8,44h3.8a86.072,86.072,0,0,0,74.2-44.1L512,905.3l43.3,74.5a85.639,85.639,0,0,0,70.8,43.9h7a85.639,85.639,0,0,0,70.8-43.9l42-73.1,38.3,70.2a87.069,87.069,0,0,0,71.1,45.7A86.118,86.118,0,0,0,930.8,988c.6-.8,1.3-1.7,2-2.8a158.379,158.379,0,0,0,28.1-90.3V159.7A158.535,158.535,0,0,0,914.2,46.8ZM629.1,941.2a2.957,2.957,0,0,1-2.2-1.6l-.1-.2L551,807.7a44.879,44.879,0,0,0-78.3,0L396.8,939.9a3.7,3.7,0,0,1-1.8.8,2.584,2.584,0,0,1-2-1.5l-.1-.2L317.5,807.8a45.006,45.006,0,0,0-27.6-21.4,38.182,38.182,0,0,0-5.7-1.1h-.1a45.188,45.188,0,0,0-45.2,23.3L167.5,938.8l-.1.2a4.591,4.591,0,0,1-5.9,2.1,5.017,5.017,0,0,1-1.5-1.4,75.559,75.559,0,0,1-14.2-44.5V159.6a77.094,77.094,0,0,1,72.5-76.8H801.6a76.97,76.97,0,0,1,76.8,76.9V895a76.193,76.193,0,0,1-13.2,42.9,5.553,5.553,0,0,1-.6.8,3.894,3.894,0,0,1-3.2,1.3h-.5a5.241,5.241,0,0,1-4.3-2.7L786.3,808.4a45.243,45.243,0,0,0-45.4-23.2h-.1a45.268,45.268,0,0,0-33.2,22.4l-76.5,133a3.506,3.506,0,0,1-1.4.6Z"/>
    <path id="路径_68" data-name="路径 68" class="cls-1" d="M544.1,567.7H291.7a41.464,41.464,0,0,0-41.2,41.2v.3a41.464,41.464,0,0,0,41.2,41.2H544.1a41.334,41.334,0,0,0,41.2-41.2v-.3A41.27,41.27,0,0,0,544.1,567.7ZM291.7,268.8H544.1a41.334,41.334,0,0,0,41.2-41.2v-.3a41.464,41.464,0,0,0-41.2-41.2H291.7a41.464,41.464,0,0,0-41.2,41.2v.3A41.334,41.334,0,0,0,291.7,268.8ZM733.8,376H291.7a41.464,41.464,0,0,0-41.2,41.2v.3a41.464,41.464,0,0,0,41.2,41.2h438l.1.1h4.1a41.485,41.485,0,0,0,41.2-41.3v-.3A41.42,41.42,0,0,0,733.8,376Z"/>
  </g>
</svg>
