<svg xmlns="http://www.w3.org/2000/svg" width="177" height="180" viewBox="0 0 177 180">
  <defs>
    <style>
      .cls-1 {
        fill: #f25c05;
      }
    </style>
  </defs>
  <path id="confetti" class="cls-1" d="M72.42,225.063l.272.58c.777-.205,1.556-.406,2.331-.622.171-.046.322-.19.491-.213.9-.121,1.8-.205,2.693-.335a2.067,2.067,0,0,0,.637-.3,3.419,3.419,0,0,1,.577-.345,19.688,19.688,0,0,1,2.9-.8c1.045-.147,2.131-1.015,3.2.08a2.329,2.329,0,0,1,1.308-1.938,26.293,26.293,0,0,0,3.434-.678c.923-.283,1.746-.894,2.664-1.214.658-.23,1.41-.151,2.1-.314,1.3-.306,2.586-.67,3.865-1.049.184-.054.3-.32.46-.492-1.446-.435-2.712-.829-3.986-1.2-.355-.1-.756-.067-1.091-.2-.957-.385-1.9-.8-2.82-1.268-.2-.1-.276-.465-.418-.72a1.708,1.708,0,0,1-1.8-.718,1.039,1.039,0,0,0-.7-.488,2.156,2.156,0,0,1-2.2-.913,4.6,4.6,0,0,0-1.178-.9,6.356,6.356,0,0,1-1.076-.768c-.633-.712-1.18-1.494-1.786-2.231a4.938,4.938,0,0,0-.668-.576,5.61,5.61,0,0,0-.537.726c-.669,1.247-1.333,2.495-1.953,3.767a10.156,10.156,0,0,0-.547,1.6,6.666,6.666,0,0,1-.359,1.371c-.439.785-1.024,1.486-1.483,2.261-.414.707-.744,1.465-1.1,2.181.113.28.409.7.311.835-.57.808-1.249,1.536-1.859,2.317-.443.565-1.053,1.107-.608,1.959l-.558-.553-.5,1.164ZM93.9,181.693c.261.375-1.283,3.872-2.367,5.233l.255.132c-.188.5-.234,1-.512,1.273a5.844,5.844,0,0,0-1.462,2.049c-.295.722-.658,1.423-.919,2.173-.146.412-.276.871-.443,1.222a4.7,4.7,0,0,1-1.245,1.262,5.077,5.077,0,0,1-.134.781c-.238.615-.5,1.218-.752,1.829-.038.1-.01.287-.067.312-1.136.515-.892,1.955-1.759,2.652a.617.617,0,0,0,.194.448,7.5,7.5,0,0,1,2.44,2.275c.1.115.159.285.282.36.971.592,2.152.846,2.722,2.047.224.477.773.774.549,1.455-.048.142.242.4.292.477.589-.142,1.105-.45,1.481-.326a34.8,34.8,0,0,1,3.384,1.413c.9.406,1.985.517,2.536,1.524.013.021.178-.057.27-.05a5.957,5.957,0,0,1,1.414.111c1.412.44,2.793,1.26,4.21,1.317a9.864,9.864,0,0,1,2.377.32.868.868,0,0,0,.386.036,12.892,12.892,0,0,1,7.187.684,1.38,1.38,0,0,0,.811.021c1.765-.488,3.29-1.637,5.258-1.7.62-.021,1.746.09,2.246-.95a1.431,1.431,0,0,1,1.347-.446c.748.41,1.241-.075,1.8-.268a7.348,7.348,0,0,0,2.735-1.2c.562-.548.932.069,1.358-.2.62-.387,1.31-.661,2.225-1.109-1.162-.383-2.248.04-3.2-.6a17.217,17.217,0,0,0-3.315-1.342l.6-.532-.163-.251-.815.488c-.056-.073-.2-.4-.33-.391-1.492.063-2.461-1.193-3.892-1.467a10.341,10.341,0,0,1-3.656-2.114c-.986-.712-2.511-.67-2.981-2.106-.021-.063-.18-.065-.253-.121-1.132-.908-2.271-1.806-3.386-2.736-.537-.448-.953-1.116-1.556-1.4-.827-.4-1.527-.808-1.734-1.746a5.267,5.267,0,0,0-1.613-2.754,12,12,0,0,1-1.678-1.605q-2.2-3.12-4.235-6.354c-.8-1.279-1.421-2.671-2.156-3.994-.14-.255-.439-.427-.754-.728a10.454,10.454,0,0,1-2.975,4.6Zm55.62-6.21c.606.291,1.446.427,1.822.919,1.393,1.811,3.531,2.415,5.336,3.546,1.013.636,2.194,1,3.242,1.587a5.624,5.624,0,0,0,2.066.913c1.095.157,2.087.959,3.313.726.084-.015.292.136.29.2-.05.768.6.446.9.523.737.2,1.523.209,2.269.383,1.065.245,2.1.678,3.171.816a10.66,10.66,0,0,0,2.459-.237l.071.163c4.444-.195,8.758.649,12.8.9.414.44.652.921.936.95a5.19,5.19,0,0,0,2.039-.167c1.166-.368,2.288-.879,3.418-1.354.948-.4,1.884-.833,2.8-1.241-.042.255-.084.521-.157,1.015.763-.858.919-1.53.052-1.974a7.923,7.923,0,0,0-2.2-.8,20.762,20.762,0,0,1-5.768-2.288c-.453-.23-.925-.705-1.35-.664-1.373.142-2.244-.921-3.405-1.247-.259-.073-.422-.484-.627-.737-.549-.362-1.36-.467-2.043-.816-1.322-.674-2.565-1.5-3.854-2.24-1.17-.674-2.369-1.3-3.533-1.99s-2.283-1.417-3.386-2.1a.638.638,0,0,1-.029.1l-3.125-2.89c-.357-.329-.706-.67-1.086-.969-.982-.77-2.008-1.486-2.956-2.294-.439-.37-.652-1.088-1.128-1.325a9.255,9.255,0,0,1-3.491-2.847c-1.375-1.936-3.457-3.309-4.358-5.618-.146-.366-.921-.567-.942-.879-.05-.687-.432-.638-.877-.714-.552-.1-2.342-2.757-2.288-3.34,0-.057.029-.111-.021.057a6.705,6.705,0,0,1-1.045-.986c-.623-.936-1.122-1.955-1.772-2.87-.744-1.042-1.7-1.94-2.373-3.022-.773-1.243-1.316-2.629-1.985-3.937-.366-.707-.863-1.352-1.176-2.08-.955-2.235-1.849-4.5-2.764-6.75-.341-.841-.746-1.662-1-2.526-.389-1.329-.56-2.729-1.034-4.021-.422-1.155-.744-2.35-1.076-3.518a8.569,8.569,0,0,1,.115-3.073c.117-1.088.366-2.16.46-3.246.021-.237-.324-.565-.579-.733-.086-.057-.5.188-.606.383-.514.973-.948,1.988-1.464,2.964-.336.638-.758,1.235-1.182,1.915l.2.1a19.58,19.58,0,0,0-4.128,6.731l-.606-.182c-.3.68-.531,1.319-.852,1.9-.706,1.285-1.462,2.541-2.189,3.816-.334.586-.608,1.212-.976,1.777-.5.772-1.088,1.486-1.6,2.254-.6.9-1.157,1.821-1.713,2.7.3.766.564,1.549.9,2.3.675,1.5,1.4,2.972,2.079,4.464.142.314.125.707.3,1,.516.9,1.176,1.733,1.607,2.673a7.841,7.841,0,0,0,1.366,2.457c.439.448.6,1.2,1.059,1.595a3.593,3.593,0,0,1,1.385,1.725c.2.705.464,1.392.7,2.085a6.93,6.93,0,0,1,.813,1.053,35.831,35.831,0,0,0,3.539,4.387c1.521,1.421,2.331,3.387,3.969,4.688a6.534,6.534,0,0,1,1.095,1.63c.115.008.37-.048.474.05,1.049,1,2.033,2.083,3.119,3.043,1,.89,1.684,2.229,3.194,2.47.077.013.132.136.207.195.806.615,1.617,1.222,2.419,1.846.272.214.52.46.765.682Zm23.356,16.01a1.182,1.182,0,0,1-.4.167,11.712,11.712,0,0,1-4.061-.289c-1.78-.557-3.679-.72-5.482-1.222A39.413,39.413,0,0,1,159,188.6c-.336-.132-.691-.226-1.011-.387-.426-.213-.817-.651-1.241-.678a3.177,3.177,0,0,1-1.822-.883,25.779,25.779,0,0,0-3.485-2.177c-2.357-1.247-4.784-2.365-6.716-4.287a25.462,25.462,0,0,0-2.3-1.955,25.67,25.67,0,0,1-3.182-2.449c-.89-.957-2.283-1.172-2.967-2.48a13.211,13.211,0,0,0-2.48-2.585c-1.8-1.884-3.806-3.646-4.957-6.07a1.527,1.527,0,0,1-.056-.664,5.683,5.683,0,0,1-1.212-.816c-.522-.611-.934-1.312-1.4-1.974-.921-1.306-1.767-2.679-2.8-3.887-.5-.58-.286-.806.073-1.319l-.806.046a1.692,1.692,0,0,0-.113-.617c-.514-.85-1.118-1.647-1.588-2.518-1.151-2.129-2.256-4.284-3.357-6.44-.4-.774-.735-1.582-1.1-2.373-.368.458-.378.858-.577,1.109-.175.228-.558.293-.84.427l.6.3c-1.214.329-.393,2.336-1.782,2.252-.43.825-.829,1.57-1.212,2.323a11.361,11.361,0,0,1-.618,1.26c-.48.7-1.086,1.327-1.531,2.051-.838,1.352-1.611,2.748-2.39,4.136-.178.314-.236.7-.409,1.013-.345.615-.974,1.183-1.038,1.817-.075.764-.627.913-.971,1.337a10.769,10.769,0,0,0-.742,1.34c-.47.793-.765,1.737-1.746,2.112-.038.015-.033.117-.063.174-.315.59-.61,1.2-.957,1.769-.754,1.245-1.352,2.593-.735,3.991.907,2.066,2.024,4.035,3.056,6.045.042.077.134.13.192.2.71.858,1.467,1.687,2.12,2.587s1.145,1.873,1.776,2.763a12.011,12.011,0,0,0,1.32,1.392,5.375,5.375,0,0,1,.9,1.394,11.278,11.278,0,0,0,2.377,2.874c1.03,1.047,2.148,2.007,3.326,3.1-.167.01-.107.015-.1.006a.985.985,0,0,0,.021-.176.329.329,0,0,1,.015-.094c.01-.017.05-.017.077-.025.37.929,1.928.8,1.878,2.051l3.443,1.693-.242.789.821-.649-.119.243,5.5,2.715.144-.245.058.8a9.52,9.52,0,0,1,2.1.025c1.554.373,3.063.948,4.621,1.291a17.047,17.047,0,0,0,2.428.015c.773.052,1.523-.092,2.277-.113a17.388,17.388,0,0,1,3.608.293c.846.157,1.889.046,2.394,1.053.351.7.758.628,1.264.134a2.13,2.13,0,0,1,.89-.517c1.609-.419,3.232-.785,4.847-1.189.175-.044.305-.239.48-.314.445-.2.9-.362,1.356-.54.28-.073.5-.337.783-.448.405-.157.867-.167,1.279-.308a8.946,8.946,0,0,1,1.258-.571,44.12,44.12,0,0,0,6.539-2.135c1.23-.414,2.229-1.687,3.748-1.168.052.017.125-.021.186-.044q1.488-.556,2.971-1.118l-.084-.268.209.226a8.131,8.131,0,0,0,1.387-.193,1.891,1.891,0,0,0,.752-.569c.077-.086-.023-.36-.094-.527a2.953,2.953,0,0,0-.349-.486Zm4.792-57.99a2.468,2.468,0,0,0-.863.031c1.191-.984,2.444-.555,3.731-.232.725.182.514.733.748,1.042.6.289,1.065.793,1.648,1.032.794.331,1.145,1.511,2.26,1.185.175,1.149,1.406.481,1.949,1.1.125.142,1.019-.086,1.207-.377a7.6,7.6,0,0,0,.815-2.093c.033-.126-.313-.36-.412-.471.153-.262.368-.46.355-.64-.1-1.363-.278-2.721-.357-4.081a2.6,2.6,0,0,1,.349-.975c-.109-.209-.43-.607-.355-.712a2.342,2.342,0,0,0,.238-1.85,16.1,16.1,0,0,1-.021-2.009c.23-.72.752-1.869.443-2.177-.955-.948-1.362-2.432-2.772-2.932-.2-.071-.48-.266-.5-.433-.221-1.633-1.609-2.357-2.707-3.11a13.166,13.166,0,0,1-2.112-2.053c-.654-.707-1.454-1.074-2.156-1.75.247,1.143.081,1.915-1.26,1.913-.132,0-.43.62-.366.689a8.326,8.326,0,0,0,1.114.9c-.15.377-.276,1.166-.512,1.2-.714.1-.978.687-1.475.982s-1.128.318-1.653.563a4.17,4.17,0,0,1-3.405-.188,15.3,15.3,0,0,0-5.766-1.183c-.267.006-.564-.126-.8-.046-.28.092-.746.377-.723.507.121.649.188,1.62.61,1.84,1.3.674.783,2.252,1.746,3.02a.643.643,0,0,1,.132.433c.063,1.36.142,2.727.165,4.092a6.009,6.009,0,0,1-1.728,4.946c-.282-1.817-.564-2.03-1.339-1.417.033.578.061.925.071,1.273a3.684,3.684,0,0,1-.044.477,2.436,2.436,0,0,0,.428-.006c.2-.033.4-.1.6-.153l.157.241c-.765.615-1.51,1.254-2.3,1.84-.963.716-2.054.132-3.071.161-.857.025-1.713-.58-2.593-.657A4.279,4.279,0,0,1,154.1,132a13.312,13.312,0,0,0-1.893-1.773,3,3,0,0,1-1.513-2.359,19.183,19.183,0,0,1,.171-2.746c.027-.213.382-.448.635-.553a3.394,3.394,0,0,1,1.448-.4,6.579,6.579,0,0,1,2.609.548,16,16,0,0,1,2.484,2.08.839.839,0,0,0,.384.237c.635.069,1.27.1,2.056.165a7.182,7.182,0,0,1-.059-.946,7.9,7.9,0,0,0-2.331-5.588,3.288,3.288,0,0,1-.5-1.3c-.088-.345-.031-.726-.107-1.078-.173-.82-.865-1.641.027-2.336-.15-.32-.43-.67-.355-.789.537-.843.5-2.124,1.784-2.422a.476.476,0,0,0,.3-.337c-.036-1.515,1.45-1.118,2.171-1.643a6.947,6.947,0,0,1,2.434-.6,4.516,4.516,0,0,0,.744-.36,2.688,2.688,0,0,1,1.166-.138c.412.121.727.565,1.139.91l.033-.3,2.306.178,1.233.791a10.9,10.9,0,0,0,1.2-.01c.3-.036.763-.077.831-.247.115-.278-.046-.661-.071-1-.021-.272,0-.544,0-.816a.934.934,0,0,1-.468-.561c-.044-.121.048-.337-.023-.4a22.019,22.019,0,0,0-2.864-2.637,9.531,9.531,0,0,0-2.726-1.457c-1.212-.3-2.229-1.109-3.574-1.08a13.833,13.833,0,0,1-2.99-.582c-.017-.132-.048-.339-.065-.45l-5.473-1.109v-.5a5.648,5.648,0,0,1-1.143.262,23.881,23.881,0,0,1-4.891-.021,3.33,3.33,0,0,0-2.684.846c-.94,1.063-2.217,2.005-2.434,3.608-.033.264-.453.626-.382.733.71,1.061.111,2.112.042,3.16-.048.741-.125,1.482-.192,2.275-.05.071-.282.249-.267.4a7.993,7.993,0,0,1,.272,1.764c-.272,1.909.9,3.814-.023,5.706.729.925.407,2.07.656,3.1.1.4.194.806.313,1.2.146.486.347.957.455,1.448.046.2-.092.433-.13.594.278.222.71.4.808.68a21.654,21.654,0,0,1,.641,2.606c.079.387.036.728.437,1.065.466.389,1.042,1.055,1,1.553a4.1,4.1,0,0,0,.731,2.5c1.03,1.57,1.834,3.236,2.714,4.875a33.309,33.309,0,0,0,2.227,2.867c1.274,1.846,2.428,3.774,3.714,5.609a35.867,35.867,0,0,0,2.386,2.855c.265.308.541.7.892.827a3.115,3.115,0,0,1,2.01,2.258,4.7,4.7,0,0,0,1.926,2.652A22.655,22.655,0,0,1,165.5,157.5a50.5,50.5,0,0,0,4.579,4,4.576,4.576,0,0,1,.781,1.057c.167.222.313.507.543.622.639.318,1.462.406,1.937.871a12.43,12.43,0,0,0,2.946,2.135c1.475.772,2.48,2.256,4.187,2.69a5.647,5.647,0,0,1,1.324.754c.213-.128.5-.193.646-.077.806.64,1.567,1.329,2.359,1.988a3.205,3.205,0,0,0,.794.557c1.636.68,3.28,1.348,4.937,1.982.418.159,1.007.036,1.316.287,1.849,1.48,4.178,1.752,6.282,2.558a23.067,23.067,0,0,0,4.176.722,15.389,15.389,0,0,1,1.65.5,37.431,37.431,0,0,0,.155-6.551c-.3-2.085,1.113-4.153-.292-6.105a3.886,3.886,0,0,1-1.059.64,34.415,34.415,0,0,1-3.971.858,7.915,7.915,0,0,1-2.012-.19c-.217-.027-.217-.494-.694-.172-.347.234-1.036-.036-1.726-.094l-.345-.507c-.088.251-.132.383-.2.576-1.256-1.1-2.766-1.71-3.455-3.364-.512-1.227-.015-3.587,1.293-4.021a5.029,5.029,0,0,1,2.277-.094,14.794,14.794,0,0,1,2.271.751,5.354,5.354,0,0,0,4.1-.107,18.546,18.546,0,0,0,2.081-1.35l-.894-.176c.355-.915.7-1.769,1.028-2.637.359-.959-.961-1.955.054-2.909a.984.984,0,0,1-.134-.147,6.3,6.3,0,0,1-.846-2.92,21.267,21.267,0,0,0-1.076-4.295c-.522-1.677-1.149-3.32-1.734-4.975-.292-.823-.533-1.67-.894-2.461-.656-1.438-1.381-2.842-2.183-4.473a21.373,21.373,0,0,0-.343,2.156c-.063.938.069,1.894-.048,2.821-.121.963-1.074,1.624-1.132,2.654-.006.082-.1.165-.169.234-.671.649-1.337,1.3-2.018,1.942A5.085,5.085,0,0,1,187.5,144.6a12.49,12.49,0,0,1-4.352-1.245,11.681,11.681,0,0,0-3.159-1.157c-.209-.05-.326-.517-.48-.8a1.954,1.954,0,0,1-.1-.251l-.742-.17c-.455-.9-.272-2.045-1.63-2.334-.453-.094-1.485-.314-1.122-1.43.088-.268-.236-.753-.487-1.034a1.59,1.59,0,0,1,.251-2.02c.384-.211.767-.433,1.149-.651l-.43.894Zm32.695,30.583a3.773,3.773,0,0,1,.307,1.088c-.008,1.741-.125,3.483-.107,5.224.015,1.379.278,2.763.224,4.134a17.1,17.1,0,0,1-.6,2.964,5.2,5.2,0,0,1,.292,1.388q-.138,2.192-.443,4.368a3.1,3.1,0,0,1-2.2,2.449c.163.226.322.44.46.638-.048.1-.058.188-.1.218a4.728,4.728,0,0,1-1.214.613c-.263.324-.334.812-1.086.613-.334-.09-.8.306-1.233.494.017.088-.01-.054-.021-.092-.919.544-1.851,1.13-2.82,1.649-.2.1-.579-.161-.8-.069-1.786.747-3.765.91-5.411,2.185-.746.58-2.091.381-3.223.544-.468.214-1.049.486-1.638.741a5.019,5.019,0,0,1-.493.13c-.831.27-1.663.548-2.5.812-.13.04-.376-.01-.393.046-.347.927-1.185.95-1.955,1.143-.61.155-1.182.46-1.8.6-.944.218-1.905.347-2.862.527-.148.027-.366.071-.418.176-.547,1.128-1.721.906-2.632,1.256a10.662,10.662,0,0,1-1.078.548,11.813,11.813,0,0,0-4.024,1.637c-.409.287-1.08.184-1.629.3a14.538,14.538,0,0,0-1.838.448c-1.646.569-3.29,1.134-4.893,1.846-.593.266-1.174.925-1.709.837-1.584-.253-2.6,1.013-3.992,1.252a24.931,24.931,0,0,0-3.468,1.262c-.608.2-1.31.144-1.9.383-.969.4-1.886.936-2.885,1.444-.173-.111-.445-.293-.884-.586l.184.749c-1.051.251-2.031.542-3.031.712-.884.151-1.525,1.229-2.662.774-.662.81-4.891,2.281-5.463,2.037a6.342,6.342,0,0,1-1.318.544c-1.832.27-3.347,1.319-5.022,1.965-.969.373-2.014.565-2.952,1a5.972,5.972,0,0,1-2.01.931,12.142,12.142,0,0,0-3.284.812c-1.028.423-2.292.3-3.088,1.3-.125.157-.476.115-.706.207-.391.155-.769.343-1.166.523h-2.3a11.019,11.019,0,0,1-1.07.712c-.919.481-1.859.921-2.8,1.36a.83.83,0,0,1-.535.069c-1.64-.507-2.866.544-4.224,1.1a2.58,2.58,0,0,1-.593.188c-.886.13-2.074-.08-2.6.419-1.224,1.157-2.783,1.047-4.149,1.584a11,11,0,0,1-2.979.98,12.319,12.319,0,0,0-3.51.921c-.117.046-.359-.239-.6-.412-.163.915-.957.85-1.638,1.078-1.366.465-2.687,1.065-4.036,1.582-1.051.4-2.114.764-3.175,1.141-.111.042-.23.13-.338.117-1.306-.146-2.3.862-3.56.929a8.053,8.053,0,0,0-1.886.393c-.639.193-1.243.507-1.882.712a7.55,7.55,0,0,1-1.182.159c-.153.678-.514.538-.913-.027a2.49,2.49,0,0,1-.7.408c-1.03.205-2.014.649-2.979.869-.827.186-2.235.536-3-.678a.6.6,0,0,0-.51-.2,3.114,3.114,0,0,1-3.363-1.884,3.84,3.84,0,0,1,.031-3.24c.1-.314.4-.561.474-.846a7.732,7.732,0,0,1,.5-1.555c.848-1.5,1.011-3.357,2.465-4.548.278-.224.2-.837.405-1.2.689-1.174,1.544-2.26,2.143-3.479.857-1.748,1.546-3.581,2.319-5.373.067-.149.247-.245.355-.379.182-.216.466-.423.5-.663.265-1.857,1.613-3.219,2.189-4.925.175-.519.213-1.09.424-1.593.282-.68.552-1.448,1.554-1.5l-.589-.2c.648-1.247,1.3-2.48,1.922-3.726a3.153,3.153,0,0,0,.178-.7,2.316,2.316,0,0,1,.2-.864,23.93,23.93,0,0,0,1.8-2.3,7.827,7.827,0,0,0,.936-2.715c.2-1.486,1.1-2.6,1.711-3.86a29.593,29.593,0,0,1,1.533-2.616c.585-.942,1.243-1.838,1.795-2.8a7.008,7.008,0,0,0,.857-2.045,11.669,11.669,0,0,1,1.7-3.37c.829-1.465,1.567-3,2.513-4.385a25.468,25.468,0,0,0,2.012-3.878,20.425,20.425,0,0,1,1.594-2.662c.353-.54.806-1.015,1.18-1.543a4.129,4.129,0,0,0,.51-.969,12.606,12.606,0,0,1,.756-2.246c.468-.783,1.281-1.36,1.759-2.135.915-1.486,1.742-3.027,2.517-4.588a8.666,8.666,0,0,1,1.567-2.055c1.053-1.13,1.613-2.708,2.486-4.025a19.545,19.545,0,0,0,1.753-3.667c.09-.23.535-.316.829-.475l-.349-.316c1.316-.452,1.329-1.754,1.874-2.715a6.562,6.562,0,0,1,1.953-2.71c.47-.3.631-1.076.944-1.628,1.065-1.877,2.1-3.774,3.221-5.62a17.092,17.092,0,0,1,1.627-1.947c.05.13-.084-.036-.042-.13.386-.9.75-1.821,1.222-2.679q1-1.792,2.106-3.516c.466-.739,1-1.438,1.513-2.147.821-1.126,1.872-2.1,2.162-3.573.084-.419.614-.724.844-1.139.867-1.563,1.753-3.123,2.513-4.741a5.97,5.97,0,0,1,1.9-2.4c.14-.1.182-.329.3-.469.416-.483.827-.973,1.281-1.423a3.041,3.041,0,0,0,1-1.43,7.824,7.824,0,0,1,1.452-2.137q1.128-1.538,2.29-3.056a5.864,5.864,0,0,1,2.607-2.4c.221-.075.309-.486.531-.611,1.623-.917,3.221-1.9,4.922-2.648a7,7,0,0,1,2.649-.287c1.266-.021,2.532.061,3.8.1.767.021,1.738-.247,2.263.121,1.082.762,2.212.113,3.278.465,1.134.373,2.334.544,3.493.846a6.45,6.45,0,0,1,2.415.8c1.128.917,2.417.157,3.539.632a7.115,7.115,0,0,0,.809.245,9.291,9.291,0,0,0-.021-1.821,7.166,7.166,0,0,1,.5-3.732c.361-1.137,1.525-1.637,1.707-2.784.854.04,1.147-1.172,2.185-.91.48.121,1.076-.28,1.63-.4.627-.134,1.268-.218,1.9-.32.063-.008.14.042.186.019,1.462-.741,2.808,0,4.195.293.589.13,1.222.063,1.8.22.328.088.583.446.869.682l.361-.576,1.958,1.57,1.042-.264c.186-.957.412-1.926.549-2.909.125-.9.157-1.817.226-2.687l-1.769-1.354.221-.18a4.666,4.666,0,0,1-2.5-2.336,4.4,4.4,0,0,0-1.333-1.649c-.637-.507-1.35-.881-1.373-1.823-1.368-.628-1.27-2.152-1.932-3.211a2.549,2.549,0,0,1-.409-1.172,48.849,48.849,0,0,1-.1-5.184,2.552,2.552,0,0,1,1.149-1.932c.7-.481,1.122-1.34,1.8-1.842a10.4,10.4,0,0,1,2.179-1,18.458,18.458,0,0,1,3.238-1.285c1.51-.324,3-1.176,4.632-.481.071.029.217.04.23.013.485-.988,1.2-.174,1.761-.167a36.337,36.337,0,0,1,4.095.37,5.44,5.44,0,0,1,2.158.486,2.073,2.073,0,0,0,1.926.077l.821-5.758c.3,0,.552.077.664-.015.424-.337.781-.753,1.2-1.1.746-.617,1.266.136,1.755.433a4.8,4.8,0,0,1,1.724,1.616,7.617,7.617,0,0,1,1.042,3.083c.042.816-.6,1.664-.852,2.524-.077.26.265.67.165.894a29.534,29.534,0,0,1-2.01,3.977c-.359.548-1.205.785-1.845,1.143-.537.3-1.028.063-1.584-.054-.815-.172-1.707.077-2.53-.065a37.244,37.244,0,0,1-3.84-.975c-.244-.069-.432-.343-.545-.44-.267.132-.572.4-.712.331a2.67,2.67,0,0,0-2.336.247,4.222,4.222,0,0,1-1.678-.1,1.792,1.792,0,0,0-.648-.021c-1.617.555-3.238,1.109-4.832,1.727-.284.109-.46.5-.585.645.146.586.267,1.032.374,1.482.144.611.236,1.239.435,1.831.079.245.376.414.575.622.5.527.988,1.063,1.49,1.589,1.093,1.141,2.256,2.223,3.263,3.433a15.123,15.123,0,0,1,3.017,4.766l-.735.291c1.113.764,1.136.973.238,1.473a3.078,3.078,0,0,1,.89,2.734,22.872,22.872,0,0,0-.694,3.454,5.218,5.218,0,0,1-2.1,3.757,12.963,12.963,0,0,1-3.113,1.264c-.272.1-.516.262-.785.362-.031.01-.14-.188-.226-.3-1.375.733-2.768.01-4.182-.264q-1.1-.211-2.166-.525a4.721,4.721,0,0,1-1.508-.62,1.984,1.984,0,0,0-2.018-.534c-.629.209-1.406.046-1.978.331a1.6,1.6,0,0,0-.61,1.34,30.35,30.35,0,0,0,.773,3.112,14.017,14.017,0,0,0,.512,2.244,3.179,3.179,0,0,0,2.3,1.806c.409.1,1.241.021.641.971.531.08,1.024.126,1.51.23.27.059.627.13.763.324,1,1.448,2.547,2.229,3.865,3.28.612.486,1.239.957,1.8,1.492.244.23.318.636.537.91a2.715,2.715,0,0,0,.687.544,3.767,3.767,0,0,1,1.272,1.413c.3.544,1.091.823,1.663,1.218l.213-.58a9.085,9.085,0,0,0,3.483,4.716l-.125.167.99,1.57h2.043l-.058-.67c.723.193,1.435.366,2.141.569,1.1.322,2.206.643,3.294,1,.389.13.721.419,1.105.565.662.251,1.373.393,2.016.682,1.475.661,2.912,1.413,4.4,2.057.3.13.737-.052.89-.069.175-.965.37-1.773.464-2.6.192-1.666.391-3.338.451-5.015.019-.54-.5-1.084-.556-1.649a3.593,3.593,0,0,1,.382-1.312l.368-.069-.744-.578c-.171-.921-.284-1.733-.48-2.528a4.79,4.79,0,0,1,.577-3.5,8.433,8.433,0,0,1,2-2.512,3.253,3.253,0,0,1,2.371-1.095c.115.01.23-.276.376-.329a7.436,7.436,0,0,1,1.124-.287c.491-.09,1.045.458,1.508-.195.1-.153.491-.188.729-.155a13.617,13.617,0,0,1,2.2.448,10.136,10.136,0,0,1,1.73.854,22.221,22.221,0,0,1,2.108,1.256,8.794,8.794,0,0,1,1.88,1.576c.913,1.137,3.466,1.683,4.615.5.163-.163.182-.471.334-.906a2.455,2.455,0,0,0,.982-2.574,5.962,5.962,0,0,1,.171-3.772,3.925,3.925,0,0,1,.355-.532c-.086-.172-.336-.45-.274-.58.675-1.409.9-3.232,2.977-3.51q-.033.216-.071.431a9.974,9.974,0,0,1,1.26.293c1.111.406,1.337,1.57,2,2.338.742.854.175,1.712.474,2.5a.316.316,0,0,1,0,.251c-1.051,1.277-.257,2.706-.2,4.019a6.654,6.654,0,0,1-.965,3.271c-.37.793-.888,1.52-1.235,2.321a3.764,3.764,0,0,1-2.041,2.17c-1.076.454-2.052,1.176-3.155,1.532a7.965,7.965,0,0,1-6.393-.9c-.882-.471-1.974-.674-2.1-1.773-1.905-.1-2.854-1.9-4.709-1.982a3.491,3.491,0,0,1-.754.136c-.585.015-1.13.921-1.038,1.58.155,1.088.157,2.2.318,3.286.178,1.2-.121,2.4.359,3.621a5.567,5.567,0,0,1,.046,2.742,19.931,19.931,0,0,0-.7,3.878,5.743,5.743,0,0,1-.694,1.944c-.1.257-.209.509-.286.772-.063.218,0,.515-.132.661a16.619,16.619,0,0,1-2.8,2.991,4.189,4.189,0,0,1-2.783.312c-1.462-.247-2.887-.733-4.345-1.049-.863-.188-2.181-.322-2.705-1.553-.111-.255-.773-.272-1.091-.37v-.471c-.923.243-1.4-.565-2.093-.866a5.958,5.958,0,0,0-1.164-.232c.71,1.455,1.316,2.683,1.909,3.918a6.106,6.106,0,0,1,.639,1.484,9.908,9.908,0,0,0,2.206,4.5c.366.471.313,1.25.518,1.863.263.8.618,1.553.882,2.344.368,1.1,1.034,2.076.988,3.357-.025.68.568,1.377.848,2.078.115.287.284.655.194.9-.276.749.063,1.1.689,1.358a14.761,14.761,0,0,1,1.362-.8,12.379,12.379,0,0,1,2.536-1,10.8,10.8,0,0,1,2.3.067c.643.015,1.289-.054,1.93-.013a2.3,2.3,0,0,1,1.157.312,8.621,8.621,0,0,0,2.841,1.381c.15.042.391.123.409.22.1.511.618.753.773,1.076.4.808,1.337.791,1.755,1.453.033.048.328-.075.543-.13.1.957.94.906,1.567,1.149.579.224,1.162.431,1.776.657a6.391,6.391,0,0,0,2.254-.241c.627-.3,1.019-1.095,1.41-1.551.125-.408.236-.718.313-1.036a12.607,12.607,0,0,0,.572-2.449,4.7,4.7,0,0,1,1.97-3.351c.746-.655,3-.339,3.416.5a10.2,10.2,0,0,1,.871,2.916,8.481,8.481,0,0,1-.058,2.505,6.082,6.082,0,0,1-1.763,3.864,3.572,3.572,0,0,0-1.191,2.1c-.052.984-.769,1.105-1.27,1.442a20.367,20.367,0,0,1-3.219,1.81,4.266,4.266,0,0,1-2.352.458c-1.149-.23-2.369.059-3.493-.733-.648-.45-1.749-.2-2.607-.414-.412-.1-.725-.567-1.1-.85a17.006,17.006,0,0,1-2.758-2.143,5.109,5.109,0,0,0-2.047-1.741,5.4,5.4,0,0,0-4.372-.013,4.215,4.215,0,0,0-1.964,4.584c.2,1.183-.042,2.432.084,3.629a21.567,21.567,0,0,0,.71,2.641c.042.155-.115.36-.2.6ZM240.99,87.224c-.418.218-1.473-.76-1.107.749.1.391-.61.98-1.022,1.589-.1-.335-.155-.519-.265-.894-.418.71-.8,1.2-1.391.377-.029-.038-.416.272-.585.228a15.886,15.886,0,0,1-2.91-.908c-.407-.193-.673-.833-.846-1.325a5.923,5.923,0,0,1-.359-1.111c-.224-1.561.752-2.2,1.792-2.89.422-.278.817-.6,1.233-.885,1.316-.923,1.634-.986,3.094-.624l-.28.53a3.914,3.914,0,0,0,.447-.126c.585-.245,1.446.62,1.726,1.57a5.769,5.769,0,0,1,.361,3.28c-.033.13.073.3.113.44ZM116.661,93.168a1.6,1.6,0,0,1,2.072-.5c.857.448,1.734.852,2.591,1.291a2.347,2.347,0,0,1,.719.488c.635.726,1.26,1.465,1.83,2.24.282.385.549.879-.2,1.157.752.28,1.019,1.067.815,2.06-.152.77-.119,1.584-.334,2.334a7.169,7.169,0,0,1-.988,2.223,13.038,13.038,0,0,1-1.96,2.018,5.842,5.842,0,0,1-5.707,1.268c-.119-.031-.24-.126-.355-.115-2.584.18-3.155-1.815-3.834-3.623a8.532,8.532,0,0,1-.671-2.784,2.431,2.431,0,0,1,.852-1.836c1-.617.673-1.513.773-2.284.192-1.513.487-2.905,2.11-3.508.683-.251,1.157-1.157,2.072-.682.09.048.146.167.219.257Zm96.082,110.2-.274-.67a4.04,4.04,0,0,1-1.308.739,2.161,2.161,0,0,1-1.233-.492c-.265-.174-.389-.555-.641-.76a2.891,2.891,0,0,0-.884-.45c-1.932-.691-3.545-3.832-2.056-5.609a6.934,6.934,0,0,1,2.382-1.455,14.418,14.418,0,0,1,2.045-.628l-.662-.745a9.261,9.261,0,0,0,1.978-.649,3.472,3.472,0,0,1,3.192,0,2.647,2.647,0,0,1,1.208,1.319,7.153,7.153,0,0,1,.842,2.746,7.288,7.288,0,0,1-1.726,5.168,4.791,4.791,0,0,1-1.37.745c-.46.234-.923.458-1.494.741ZM157.468,70.547a5.149,5.149,0,0,1-.1-.791c.006-.289.01-.779.142-.825,1.061-.383,1.32-2.007,2.8-1.769.242.042.556-.383.842-.584.549-.385.8-1.4,1.855-.743.311.193.928-.08,1.4-.176a2.48,2.48,0,0,1,2.118,1.13,4.658,4.658,0,0,1,.971,3.014c-.209,2.11-1.011,3.874-3.209,4.667a11.306,11.306,0,0,0-1.659.837,2.214,2.214,0,0,1-3.211-1.082c-.355-.663-.969-1.183-1.37-1.827a13.907,13.907,0,0,1-.794-1.769l.221-.084Zm81.949,60.794a5.169,5.169,0,0,1-1,3.583,20.04,20.04,0,0,1-1.749,1.57c-.917.963-1.964.46-2.946.293-.313-.054-.591-.908-.8-.873-.765.126-.685-.576-1.022-.837a.59.59,0,0,1-.188-.266,3.027,3.027,0,0,1,1.049-2.9,1.019,1.019,0,0,0,.324-.454c.355-1.057,1.3-1.34,2.148-1.815.372-.209.612-.555,1.141-.636,1.444-.22,2.1.764,2.82,1.674a2.159,2.159,0,0,1,.221.663Z" transform="translate(-64.001 -53.333)"/>
</svg>
