<svg xmlns="http://www.w3.org/2000/svg" width="282" height="204.723" viewBox="0 0 282 204.723">
  <defs>
    <style>
      .cls-1, .cls-2, .cls-3, .cls-5, .cls-7 {
        fill: none;
      }

      .cls-1, .cls-3, .cls-5 {
        stroke: #fff;
      }

      .cls-1, .cls-5 {
        stroke-width: 4px;
      }

      .cls-3 {
        stroke-width: 5px;
      }

      .cls-4 {
        fill: #fff;
      }

      .cls-5 {
        stroke-linecap: round;
      }

      .cls-6, .cls-8 {
        stroke: none;
      }

      .cls-8 {
        fill: #fff;
      }
    </style>
  </defs>
  <g id="logo" transform="translate(21101.25 4392)">
    <g id="组_215" data-name="组 215" transform="translate(-6.25 -1)">
      <g id="矩形_187" data-name="矩形 187" class="cls-1" transform="translate(-21070 -4391)">
        <rect class="cls-6" width="232" height="135" rx="16"/>
        <rect class="cls-7" x="2" y="2" width="228" height="131" rx="14"/>
      </g>
      <g id="路径_59" data-name="路径 59" class="cls-2" transform="translate(-20905 -4379)">
        <path class="cls-6" d="M22.5,0A22.5,22.5,0,0,1,45,22.5H0A22.5,22.5,0,0,1,22.5,0Z"/>
        <path class="cls-8" d="M 22.5 4 C 17.55846977233887 4 12.9127082824707 5.924339294433594 9.418521881103516 9.418519973754883 C 6.887245178222656 11.94980335235596 5.179817199707031 15.08539772033691 4.430995941162109 18.5 L 40.56900405883789 18.5 C 39.82018280029297 15.08539772033691 38.11275482177734 11.94980335235596 35.58148193359375 9.418519973754883 C 32.08728790283203 5.924339294433594 27.44153022766113 4 22.5 4 M 22.5 0 C 34.92641067504883 0 45 10.07359027862549 45 22.5 L 0 22.5 C 0 10.07359027862549 10.07358932495117 0 22.5 0 Z"/>
      </g>
      <g id="路径_60" data-name="路径 60" class="cls-2" transform="translate(-20896 -4359.5)">
        <path class="cls-6" d="M22.5,0A22.5,22.5,0,0,1,45,22.5H0A22.5,22.5,0,0,1,22.5,0Z"/>
        <path class="cls-8" d="M 22.5 4 C 17.55846977233887 4 12.9127082824707 5.924339294433594 9.418521881103516 9.418519973754883 C 6.887245178222656 11.94980335235596 5.179817199707031 15.08539772033691 4.430995941162109 18.5 L 40.56900405883789 18.5 C 39.82018280029297 15.08539772033691 38.11275482177734 11.94980335235596 35.58148193359375 9.418519973754883 C 32.08728790283203 5.924339294433594 27.44153022766113 4 22.5 4 M 22.5 0 C 34.92641067504883 0 45 10.07359027862549 45 22.5 L 0 22.5 C 0 10.07359027862549 10.07358932495117 0 22.5 0 Z"/>
      </g>
      <g id="组_212" data-name="组 212" transform="translate(54 193)">
        <g id="组_211" data-name="组 211">
          <g id="矩形_188" data-name="矩形 188" class="cls-1" transform="translate(-20969 -4523)">
            <path class="cls-6" d="M32,0H64a0,0,0,0,1,0,0V32A32,32,0,0,1,32,64h0A32,32,0,0,1,0,32v0A32,32,0,0,1,32,0Z"/>
            <path class="cls-7" d="M32,2H62a0,0,0,0,1,0,0V32A30,30,0,0,1,32,62h0A30,30,0,0,1,2,32v0A30,30,0,0,1,32,2Z"/>
          </g>
          <g id="矩形_190" data-name="矩形 190" class="cls-1" transform="translate(-20969 -4523)">
            <path class="cls-6" d="M32,0H64a0,0,0,0,1,0,0V32A32,32,0,0,1,32,64h0A32,32,0,0,1,0,32v0A32,32,0,0,1,32,0Z"/>
            <path class="cls-7" d="M32,2H62a0,0,0,0,1,0,0V32A30,30,0,0,1,32,62h0A30,30,0,0,1,2,32v0A30,30,0,0,1,32,2Z"/>
          </g>
          <g id="矩形_189" data-name="矩形 189" class="cls-1" transform="translate(-20969 -4523)">
            <path class="cls-6" d="M32,0H64a0,0,0,0,1,0,0V32A32,32,0,0,1,32,64h0A32,32,0,0,1,0,32v0A32,32,0,0,1,32,0Z"/>
            <path class="cls-7" d="M32,2H62a0,0,0,0,1,0,0V32A30,30,0,0,1,32,62h0A30,30,0,0,1,2,32v0A30,30,0,0,1,32,2Z"/>
          </g>
          <g id="椭圆_22" data-name="椭圆 22" class="cls-1" transform="translate(-20959 -4513)">
            <circle class="cls-6" cx="22" cy="22" r="22"/>
            <circle class="cls-7" cx="22" cy="22" r="20"/>
          </g>
          <g id="椭圆_24" data-name="椭圆 24" class="cls-1" transform="translate(-20959 -4513)">
            <circle class="cls-6" cx="22" cy="22" r="22"/>
            <circle class="cls-7" cx="22" cy="22" r="20"/>
          </g>
          <g id="椭圆_23" data-name="椭圆 23" class="cls-1" transform="translate(-20959 -4513)">
            <circle class="cls-6" cx="22" cy="22" r="22"/>
            <circle class="cls-7" cx="22" cy="22" r="20"/>
          </g>
          <g id="椭圆_25" data-name="椭圆 25" class="cls-1" transform="translate(-20959 -4513)">
            <circle class="cls-6" cx="22" cy="22" r="22"/>
            <circle class="cls-7" cx="22" cy="22" r="20"/>
          </g>
        </g>
      </g>
      <path id="路径_61" data-name="路径 61" class="cls-1" d="M-21177.055-4567.854s-9.738,11.522-9.738,17.489,3.668,7.2,9.738,7.2,10.459-1.235,10.459-7.2S-21177.055-4567.854-21177.055-4567.854Z" transform="translate(134 189.354)"/>
      <g id="路径_65" data-name="路径 65" class="cls-2" transform="translate(-21019 -4379)">
        <path class="cls-6" d="M16,0H88a16,16,0,0,1,16,16V39H0V16A16,16,0,0,1,16,0Z"/>
        <path class="cls-8" d="M 16 4 C 12.79468536376953 4 9.781219482421875 5.248218536376953 7.514717102050781 7.514717102050781 C 5.248214721679688 9.781217575073242 4 12.7946834564209 4 16 L 4 35 L 100 35 L 100 16 C 100 12.7946834564209 98.75178527832031 9.781217575073242 96.48528289794922 7.514717102050781 C 94.21878051757812 5.248218536376953 91.20531463623047 4 88 4 L 16 4 M 16 0 L 88 0 C 96.8365478515625 0 104 7.163450241088867 104 16 L 104 39 L 0 39 L 0 16 C 0 7.163450241088867 7.1634521484375 0 16 0 Z"/>
      </g>
      <g id="矩形_192" data-name="矩形 192" class="cls-1" transform="translate(-21037 -4344)">
        <path class="cls-6" d="M16,0H88a16,16,0,0,1,16,16V39a0,0,0,0,1,0,0H0a0,0,0,0,1,0,0V16A16,16,0,0,1,16,0Z"/>
        <path class="cls-7" d="M16,2H88a14,14,0,0,1,14,14V37a0,0,0,0,1,0,0H2a0,0,0,0,1,0,0V16A14,14,0,0,1,16,2Z"/>
      </g>
      <g id="矩形_193" data-name="矩形 193" class="cls-1" transform="translate(-21053 -4307)">
        <path class="cls-6" d="M16,0H88a16,16,0,0,1,16,16V39a0,0,0,0,1,0,0H0a0,0,0,0,1,0,0V16A16,16,0,0,1,16,0Z"/>
        <path class="cls-7" d="M16,2H88a14,14,0,0,1,14,14V37a0,0,0,0,1,0,0H2a0,0,0,0,1,0,0V16A14,14,0,0,1,16,2Z"/>
      </g>
      <line id="直线_86" data-name="直线 86" class="cls-1" x1="57" y2="106" transform="translate(-21047.5 -4376.5)"/>
      <line id="直线_87" data-name="直线 87" class="cls-1" x1="57" y2="107" transform="translate(-21016.5 -4376.5)"/>
      <line id="直线_88" data-name="直线 88" class="cls-1" x1="56.5" y2="107" transform="translate(-20985.5 -4376.5)"/>
    </g>
    <g id="组_216" data-name="组 216" transform="translate(-3.25)">
      <line id="直线_91" data-name="直线 91" class="cls-3" y1="18.74" x2="193.5" transform="translate(-21053 -4238.5)"/>
      <path id="路径_62" data-name="路径 62" class="cls-4" d="M-21042.523-4247.242h18.832v9.98l-18.832,1.5Z" transform="translate(-0.207 9)"/>
      <path id="路径_63" data-name="路径 63" class="cls-4" d="M-21042.711-4218.909l18.758-1.784v11.639h-18.57Z" transform="translate(0.018 4)"/>
      <path id="路径_64" data-name="路径 64" class="cls-4" d="M-20968.832-4221.512l19.414-.614,89.346,16.024v5.314l-35.221-6.338Z" transform="translate(191.836 -1103.522) rotate(-3)"/>
    </g>
    <line id="直线_92" data-name="直线 92" class="cls-5" x2="20" transform="translate(-21099.25 -4205.277)"/>
    <line id="直线_93" data-name="直线 93" class="cls-5" x2="277" transform="translate(-21099.25 -4189.277)"/>
    <line id="直线_94" data-name="直线 94" class="cls-5" x2="20" transform="translate(-20841.25 -4205.277)"/>
  </g>
</svg>
