<svg xmlns="http://www.w3.org/2000/svg" width="159.741" height="115.028" viewBox="0 0 159.741 115.028">
  <defs>
    <style>
      .cls-1, .cls-2, .cls-3, .cls-5, .cls-7 {
        fill: none;
      }

      .cls-1, .cls-3, .cls-5 {
        stroke: #fff;
      }

      .cls-1, .cls-5 {
        stroke-width: 2px;
      }

      .cls-3 {
        stroke-width: 3px;
      }

      .cls-4 {
        fill: #fff;
      }

      .cls-5 {
        stroke-linecap: round;
      }

      .cls-6, .cls-8 {
        stroke: none;
      }

      .cls-8 {
        fill: #fff;
      }
    </style>
  </defs>
  <g id="logo-sm" transform="translate(1)">
    <g id="组_215" data-name="组 215" transform="translate(13.051 0)">
      <g id="矩形_187" data-name="矩形 187" class="cls-1" transform="translate(0)">
        <rect class="cls-6" width="131.64" height="76.601" rx="16"/>
        <rect class="cls-7" x="1" y="1" width="129.64" height="74.601" rx="15"/>
      </g>
      <g id="路径_59" data-name="路径 59" class="cls-2" transform="translate(93.623 6.809)">
        <path class="cls-6" d="M12.767,0A12.767,12.767,0,0,1,25.534,12.767H0A12.767,12.767,0,0,1,12.767,0Z"/>
        <path class="cls-8" d="M 12.76680755615234 2.000003814697266 C 9.890887260437012 2.000003814697266 7.187107086181641 3.119943618774414 5.153528213500977 5.153523921966553 C 3.599662780761719 6.707380294799805 2.579227447509766 8.652551651000977 2.184257507324219 10.76680374145508 L 23.34935760498047 10.76680374145508 C 22.95438766479492 8.652551651000977 21.93395233154297 6.707380294799805 20.38008689880371 5.153523921966553 C 18.34650802612305 3.119943618774414 15.64272785186768 2.000003814697266 12.76680755615234 2.000003814697266 M 12.76680755615234 3.814697265625e-06 C 19.81771850585938 3.814697265625e-06 25.53361701965332 5.715893745422363 25.53361701965332 12.76680374145508 L -1.9073486328125e-06 12.76680374145508 C -1.9073486328125e-06 5.715893745422363 5.715896606445312 3.814697265625e-06 12.76680755615234 3.814697265625e-06 Z"/>
      </g>
      <g id="路径_60" data-name="路径 60" class="cls-2" transform="translate(98.73 17.874)">
        <path class="cls-6" d="M12.767,0A12.767,12.767,0,0,1,25.534,12.767H0A12.767,12.767,0,0,1,12.767,0Z"/>
        <path class="cls-8" d="M 12.76680755615234 2.000003814697266 C 9.890887260437012 2.000003814697266 7.187107086181641 3.119943618774414 5.153528213500977 5.153523921966553 C 3.599662780761719 6.707380294799805 2.579227447509766 8.652551651000977 2.184257507324219 10.76680374145508 L 23.34935760498047 10.76680374145508 C 22.95438766479492 8.652551651000977 21.93395233154297 6.707380294799805 20.38008689880371 5.153523921966553 C 18.34650802612305 3.119943618774414 15.64272785186768 2.000003814697266 12.76680755615234 2.000003814697266 M 12.76680755615234 3.814697265625e-06 C 19.81771850585938 3.814697265625e-06 25.53361701965332 5.715893745422363 25.53361701965332 12.76680374145508 L -1.9073486328125e-06 12.76680374145508 C -1.9073486328125e-06 5.715893745422363 5.715896606445312 3.814697265625e-06 12.76680755615234 3.814697265625e-06 Z"/>
      </g>
      <g id="组_212" data-name="组 212" transform="translate(87.949 34.612)">
        <g id="组_211" data-name="组 211" transform="translate(0)">
          <g id="矩形_188" data-name="矩形 188" class="cls-1">
            <path class="cls-6" d="M18.157,0H36.314a0,0,0,0,1,0,0V18.157A18.157,18.157,0,0,1,18.157,36.314h0A18.157,18.157,0,0,1,0,18.157v0A18.157,18.157,0,0,1,18.157,0Z"/>
            <path class="cls-7" d="M18.157,1H35.314a0,0,0,0,1,0,0V18.157A17.157,17.157,0,0,1,18.157,35.314h0A17.157,17.157,0,0,1,1,18.157v0A17.157,17.157,0,0,1,18.157,1Z"/>
          </g>
          <g id="矩形_190" data-name="矩形 190" class="cls-1">
            <path class="cls-6" d="M18.157,0H36.314a0,0,0,0,1,0,0V18.157A18.157,18.157,0,0,1,18.157,36.314h0A18.157,18.157,0,0,1,0,18.157v0A18.157,18.157,0,0,1,18.157,0Z"/>
            <path class="cls-7" d="M18.157,1H35.314a0,0,0,0,1,0,0V18.157A17.157,17.157,0,0,1,18.157,35.314h0A17.157,17.157,0,0,1,1,18.157v0A17.157,17.157,0,0,1,18.157,1Z"/>
          </g>
          <g id="矩形_189" data-name="矩形 189" class="cls-1">
            <path class="cls-6" d="M18.157,0H36.314a0,0,0,0,1,0,0V18.157A18.157,18.157,0,0,1,18.157,36.314h0A18.157,18.157,0,0,1,0,18.157v0A18.157,18.157,0,0,1,18.157,0Z"/>
            <path class="cls-7" d="M18.157,1H35.314a0,0,0,0,1,0,0V18.157A17.157,17.157,0,0,1,18.157,35.314h0A17.157,17.157,0,0,1,1,18.157v0A17.157,17.157,0,0,1,18.157,1Z"/>
          </g>
          <g id="椭圆_22" data-name="椭圆 22" class="cls-1" transform="translate(5.674 5.674)">
            <circle class="cls-6" cx="12.483" cy="12.483" r="12.483"/>
            <circle class="cls-7" cx="12.483" cy="12.483" r="11.483"/>
          </g>
          <g id="椭圆_24" data-name="椭圆 24" class="cls-1" transform="translate(5.674 5.674)">
            <circle class="cls-6" cx="12.483" cy="12.483" r="12.483"/>
            <circle class="cls-7" cx="12.483" cy="12.483" r="11.483"/>
          </g>
          <g id="椭圆_23" data-name="椭圆 23" class="cls-1" transform="translate(5.674 5.674)">
            <circle class="cls-6" cx="12.483" cy="12.483" r="12.483"/>
            <circle class="cls-7" cx="12.483" cy="12.483" r="11.483"/>
          </g>
          <g id="椭圆_25" data-name="椭圆 25" class="cls-1" transform="translate(5.674 5.674)">
            <circle class="cls-6" cx="12.483" cy="12.483" r="12.483"/>
            <circle class="cls-7" cx="12.483" cy="12.483" r="11.483"/>
          </g>
        </g>
      </g>
      <path id="路径_61" data-name="路径 61" class="cls-1" d="M-21181.266-4567.854s-5.527,6.538-5.527,9.924,2.082,4.086,5.527,4.086,5.934-.7,5.934-4.086S-21181.266-4567.854-21181.266-4567.854Z" transform="translate(21196.557 4574.947)"/>
      <g id="路径_65" data-name="路径 65" class="cls-2" transform="translate(28.938 6.809)">
        <path class="cls-6" d="M9.079,0H49.932a9.079,9.079,0,0,1,9.079,9.079V22.129H0V9.079A9.079,9.079,0,0,1,9.079,0Z"/>
        <path class="cls-8" d="M 9.078620910644531 1.999996185302734 C 5.175460815429688 1.999996185302734 2.000003814697266 5.175457000732422 2.000003814697266 9.078616142272949 L 2.000003814697266 20.12913703918457 L 57.01102066040039 20.12913703918457 L 57.01102066040039 9.078616142272949 C 57.01102066040039 5.175457000732422 53.83556365966797 1.999996185302734 49.93240356445312 1.999996185302734 L 9.078620910644531 1.999996185302734 M 9.078620910644531 -3.814697265625e-06 L 49.93240356445312 -3.814697265625e-06 C 54.94638061523438 -3.814697265625e-06 59.01102066040039 4.06463623046875 59.01102066040039 9.078616142272949 L 59.01102066040039 22.12913703918457 L 3.814697265625e-06 22.12913703918457 L 3.814697265625e-06 9.078616142272949 C 3.814697265625e-06 4.06463623046875 4.064632415771484 -3.814697265625e-06 9.078620910644531 -3.814697265625e-06 Z"/>
      </g>
      <g id="矩形_192" data-name="矩形 192" class="cls-1" transform="translate(18.725 26.668)">
        <path class="cls-6" d="M8,0H51.011a8,8,0,0,1,8,8V22.129a0,0,0,0,1,0,0H0a0,0,0,0,1,0,0V8A8,8,0,0,1,8,0Z"/>
        <path class="cls-7" d="M8,1H51.011a7,7,0,0,1,7,7V21.129a0,0,0,0,1,0,0H1a0,0,0,0,1,0,0V8A7,7,0,0,1,8,1Z"/>
      </g>
      <g id="矩形_193" data-name="矩形 193" class="cls-1" transform="translate(9.646 47.663)">
        <path class="cls-6" d="M8,0H51.011a8,8,0,0,1,8,8V22.129a0,0,0,0,1,0,0H0a0,0,0,0,1,0,0V8A8,8,0,0,1,8,0Z"/>
        <path class="cls-7" d="M8,1H51.011a7,7,0,0,1,7,7V21.129a0,0,0,0,1,0,0H1a0,0,0,0,1,0,0V8A7,7,0,0,1,8,1Z"/>
      </g>
      <line id="直线_86" data-name="直线 86" class="cls-1" x1="32.343" y2="60.146" transform="translate(12.767 8.227)"/>
      <line id="直线_87" data-name="直线 87" class="cls-1" x1="32.343" y2="60.713" transform="translate(30.357 8.227)"/>
      <line id="直线_88" data-name="直线 88" class="cls-1" x1="32.059" y2="60.713" transform="translate(47.946 8.227)"/>
    </g>
    <g id="组_216" data-name="组 216" transform="translate(24.399 87.098)">
      <line id="直线_91" data-name="直线 91" class="cls-3" y1="10.633" x2="109.795"/>
      <path id="路径_62" data-name="路径 62" class="cls-4" d="M-21042.523-4247.242h10.688v5.663l-10.687.853Z" transform="translate(21048.35 4247.389)"/>
      <path id="路径_63" data-name="路径 63" class="cls-4" d="M-21042.711-4219.681l10.645-1.013v6.6h-10.537Z" transform="translate(21048.559 4233.067)"/>
      <path id="路径_64" data-name="路径 64" class="cls-4" d="M0,.349,11.017,0l50.7,9.093v3.015l-19.984-3.6Z" transform="translate(47.534 9.114) rotate(-3)"/>
    </g>
    <line id="直线_92" data-name="直线 92" class="cls-5" x2="11.348" transform="translate(0 105.949)"/>
    <line id="直线_93" data-name="直线 93" class="cls-5" x2="157.174" transform="translate(0 114.028)"/>
    <line id="直线_94" data-name="直线 94" class="cls-5" x2="11.348" transform="translate(146.393 105.949)"/>
  </g>
</svg>
