<svg xmlns="http://www.w3.org/2000/svg" width="150" height="150" viewBox="0 0 150 150">
  <defs>
    <style>
      .cls-1 {
        fill: rgba(255,255,255,0);
      }

      .cls-2 {
        fill: #fff;
      }
    </style>
  </defs>
  <g id="minus" transform="translate(15062 2250)">
    <path id="plus" class="cls-1" d="M259.714,137.916V158.37A10.185,10.185,0,0,1,249.487,168.6H205.169v44.318a10.185,10.185,0,0,1-10.227,10.227H174.487a10.185,10.185,0,0,1-10.227-10.227V168.6H119.941a10.185,10.185,0,0,1-10.227-10.227V137.916a10.185,10.185,0,0,1,10.227-10.227h44.318V83.37a10.185,10.185,0,0,1,10.227-10.227h20.454A10.185,10.185,0,0,1,205.168,83.37v44.318h44.318a10.185,10.185,0,0,1,10.227,10.227Z" transform="translate(-15171.714 -2323.143)"/>
    <path id="minus-2" data-name="minus" class="cls-2" d="M259.714,375.714v20a9.536,9.536,0,0,1-2.983,7.083,9.977,9.977,0,0,1-7.244,2.917H119.941A9.977,9.977,0,0,1,112.7,402.8a9.536,9.536,0,0,1-2.983-7.083v-20a9.536,9.536,0,0,1,2.983-7.083,9.977,9.977,0,0,1,7.244-2.917H249.486a9.978,9.978,0,0,1,7.244,2.917,9.537,9.537,0,0,1,2.983,7.083Z" transform="translate(-15171.714 -2560.714)"/>
  </g>
</svg>
