<svg xmlns="http://www.w3.org/2000/svg" width="150" height="150" viewBox="0 0 150 150">
  <defs>
    <style>
      .cls-1 {
        fill: #f25c05;
      }
    </style>
  </defs>
  <path id="plus" class="cls-1" d="M259.714,137.916V158.37A10.185,10.185,0,0,1,249.487,168.6H205.169v44.318a10.185,10.185,0,0,1-10.227,10.227H174.487a10.185,10.185,0,0,1-10.227-10.227V168.6H119.941a10.185,10.185,0,0,1-10.227-10.227V137.916a10.185,10.185,0,0,1,10.227-10.227h44.318V83.37a10.185,10.185,0,0,1,10.227-10.227h20.454A10.185,10.185,0,0,1,205.168,83.37v44.318h44.318a10.185,10.185,0,0,1,10.227,10.227Z" transform="translate(-109.714 -73.143)"/>
</svg>
