<svg xmlns="http://www.w3.org/2000/svg" width="32" height="32" viewBox="0 0 32 32">
  <defs>
    <style>
      .cls-1 {
        fill: #fff;
      }
    </style>
  </defs>
  <path id="shopping" class="cls-1" d="M108.35,123.019a2.491,2.491,0,1,1-2.5,2.491,2.491,2.491,0,0,1,2.5-2.491Zm12.488,0a2.491,2.491,0,1,1-2.5,2.491,2.491,2.491,0,0,1,2.5-2.491ZM101.375,96a1.23,1.23,0,0,1,1.219,1.045l.592,3.935h21.08A3.741,3.741,0,0,1,128,104.5v.22a3.562,3.562,0,0,1-.02.38l-.024.189-1.734,12.453a3.743,3.743,0,0,1-3.482,3.161H106.883a3.744,3.744,0,0,1-3.662-2.951l-.041-.217-.109-.771-2.782-18.471H97.248a1.245,1.245,0,1,1,0-2.491Zm22.9,7.467H103.7l1.868,13.293.088.58h-.008v.015a1.247,1.247,0,0,0,1.094,1.049l.14.008h15.67a1.25,1.25,0,0,0,1.2-.919l.028-.133,1.734-12.453a1.247,1.247,0,0,0-1.234-1.435Zm-7.044,9.963a1.23,1.23,0,0,1,1.231,1.228v.035a1.23,1.23,0,0,1-1.231,1.228H112.2a1.23,1.23,0,0,1-1.231-1.228v-.025a1.23,1.23,0,0,1,1.231-1.228Z" transform="translate(-96.002 -96)"/>
</svg>
